<svg id="London_Cityset" data-name="London Cityset" xmlns="http://www.w3.org/2000/svg" width="32" height="32" viewBox="0 0 32 32"><defs><style>.cls-1{fill-rule:evenodd;}</style></defs><title>black-cab</title><path id="black-cab" class="cls-1" d="M8,15a2,2,0,1,0,2,2,2,2,0,0,0-2-2m16,0a2,2,0,1,0,2,2,2,2,0,0,0-2-2m6,3.5a6.51,6.51,0,0,0-4.06-6L24.87,5H20V3H12V5H7.13L6.06,12.48A6.51,6.51,0,0,0,2,18.5V25H4v.5a3.5,3.5,0,0,0,7,0V25H21v.5a3.5,3.5,0,0,0,7,0V25h2ZM18,7H14V5h4ZM8.15,12l.71-5H12V9h8V7h3.13l.71,5H8.15ZM13,14h6v5H13ZM9,25.5a1.5,1.5,0,0,1-3,0V25H9Zm17,0a1.5,1.5,0,0,1-3,0V25h3ZM28,23H4V18.5A4.5,4.5,0,0,1,8.5,14H11v7H21V14h2.5A4.5,4.5,0,0,1,28,18.5Z"/></svg>