<svg id="London_Cityset" data-name="London Cityset" xmlns="http://www.w3.org/2000/svg" width="32" height="32" viewBox="0 0 32 32"><defs><style>.cls-1{fill-rule:evenodd;}</style></defs><title>boris-bike</title><path id="boris-bike" class="cls-1" d="M25,14a6,6,0,0,0-1.19.12L20.69,6H17V8h2.31L20,9.77l-4,8L13.62,13H15V11H9v2h1.2l-.91,1.46A6,6,0,1,0,12.91,21h1.37a2,2,0,1,0,3.39-2.1L21,12.3l1,2.54A6,6,0,1,0,25,14ZM11.9,14l2.43,4.86-.05.1H12.91A6,6,0,0,0,11,15.52Zm-2,3.21a4,4,0,0,1,1,1.74H8.8ZM7,24a4,4,0,1,1,1.19-7.8L5.2,21h5.66A4,4,0,0,1,7,24Zm18,0a4,4,0,0,1-2.32-7.25l1.75,4.54,1.87-.72L24.55,16A3.94,3.94,0,0,1,25,16a4,4,0,0,1,0,8Z"/></svg>