<svg id="London_Cityset" data-name="London Cityset" xmlns="http://www.w3.org/2000/svg" width="32" height="32" viewBox="0 0 32 32"><defs><style>.cls-1{fill-rule:evenodd;}</style></defs><title>cup-of-tea</title><path id="cup-of-tea" class="cls-1" d="M15,4H13v6h2Zm4,2H17v4h2ZM11,6H9v4h2Zm13.5,8a3.46,3.46,0,0,0-1.5.35V12H5v6a9,9,0,0,0,4.9,8H4v2H24V26H18.11a9,9,0,0,0,4.54-5.54A3.46,3.46,0,0,0,24.5,21a3.5,3.5,0,0,0,0-7ZM21,18A7,7,0,0,1,7,18V14h6v2H11v6h6V16H15V14h6Zm-6,2H13V18h2Zm9.5-1A1.5,1.5,0,1,1,26,17.5,1.5,1.5,0,0,1,24.5,19Z"/></svg>