<svg id="London_Cityset" data-name="London Cityset" xmlns="http://www.w3.org/2000/svg" width="32" height="32" viewBox="0 0 32 32"><defs><style>.cls-1{fill-rule:evenodd;}</style></defs><title>double-decker-bus</title><path id="double-decker-bus" class="cls-1" d="M24,23H21V20h3ZM11,23H8V20h3ZM23,2H9A5,5,0,0,0,4,7V26H6v.92A3,3,0,0,0,9,30a3,3,0,0,0,3-3.08V26h8v.92a3,3,0,1,0,6,0V26h2V7A5,5,0,0,0,23,2ZM6,13h9v4H13a3,3,0,0,0-6,0H6Zm5,4H9a1,1,0,0,1,2,0Zm-1,9.92A1,1,0,0,1,9,28a1,1,0,0,1-1-1.08V26h2Zm14,0a1,1,0,1,1-2,0V26h2ZM26,24H6V19H26Zm0-7H17V13h9Zm0-6H6V9H26ZM6,7A3,3,0,0,1,9,4H23a3,3,0,0,1,3,3Z"/></svg>