<svg id="London_Cityset" data-name="London Cityset" xmlns="http://www.w3.org/2000/svg" width="32" height="32" viewBox="0 0 32 32"><defs><style>.cls-1{fill-rule:evenodd;}</style></defs><title>london-eye</title><path id="london-eye" class="cls-1" d="M5,14.54a1,1,0,1,1-1,1A1,1,0,0,1,5,14.54Zm22,0a1,1,0,1,1-1,1A1,1,0,0,1,27,14.54ZM8.14,6.64a1,1,0,1,1-1,1A1,1,0,0,1,8.14,6.64ZM24,22.54a1,1,0,1,1-1,1A1,1,0,0,1,24,22.54ZM16.21,3.46a1,1,0,1,1-1,1A1,1,0,0,1,16.21,3.46ZM23.9,6.64a1,1,0,1,1-1,1A1,1,0,0,1,23.9,6.64ZM8,22.54a1,1,0,1,1-1,1A1,1,0,0,1,8,22.54Zm11.54,6H12.45L16,19.33ZM14.72,17.08l-2.17,5.68a8,8,0,1,1,6.9,0l-2.18-5.68a2,2,0,1,0-2.55,0ZM6.36,18.22a10,10,0,0,0,1,2.39,3,3,0,1,0,3.56,3.56q.43.25.88.46L9.54,30.54H22.46l-2.27-5.91q.46-.21.88-.46a3,3,0,1,0,3.56-3.56,10,10,0,0,0,1-2.39,3,3,0,1,0,0-5.35,9.94,9.94,0,0,0-1-2.32A3,3,0,1,0,21,6.88a9.94,9.94,0,0,0-2.18-.94,3,3,0,1,0-5.27-.1,9.94,9.94,0,0,0-2.51,1,3,3,0,1,0-3.69,3.68,9.94,9.94,0,0,0-1,2.33,3,3,0,1,0,0,5.35Z"/></svg>