<svg id="London_Cityset" data-name="London Cityset" xmlns="http://www.w3.org/2000/svg" width="32" height="32" viewBox="0 0 32 32"><defs><style>.cls-1{fill-rule:evenodd;}</style></defs><title>london-underground</title><path id="london-underground" class="cls-1" d="M28.65,13a13,13,0,0,0-25.3,0H1v6H3.35a13,13,0,0,0,25.3,0H31V13ZM16,5a11,11,0,0,1,10.59,8h-2.1a9,9,0,0,0-17,0H5.41A11,11,0,0,1,16,5Zm6.33,8H9.67a7,7,0,0,1,12.66,0ZM16,27A11,11,0,0,1,5.41,19h2.1a9,9,0,0,0,17,0h2.1A11,11,0,0,1,16,27ZM9.67,19H22.33A7,7,0,0,1,9.67,19ZM29,17H3V15H29Z"/></svg>