<svg id="London_Cityset" data-name="London Cityset" xmlns="http://www.w3.org/2000/svg" width="32" height="32" viewBox="0 0 32 32"><defs><style>.cls-1{fill-rule:evenodd;}</style></defs><title>phone-box</title><path id="phone-box" class="cls-1" d="M24,28V10H23V8h1V5a3,3,0,0,0-3-3H11A3,3,0,0,0,8,5V8H9v2H8V28H6v2H26V28ZM14,18h4v4H14Zm4,10H14V24h4ZM12,16H10V12h2Zm10,0H20V12h2Zm-4,0H14V12h4Zm-6,6H10V18h2Zm8-4h2v4H20ZM10,5a1,1,0,0,1,1-1H21a1,1,0,0,1,1,1V6H10Zm1,3H21v2H11ZM10,24h2v4H10Zm10,0h2v4H20Z"/></svg>