<svg id="London_Cityset" data-name="London Cityset" xmlns="http://www.w3.org/2000/svg" width="32" height="32" viewBox="0 0 32 32"><title>police-hat</title><path id="police-hat" d="M27,21.71c-.06-7.47-2.82-13.51-7.13-15.78A3.83,3.83,0,0,0,20,5a4,4,0,0,0-8,0,3.83,3.83,0,0,0,.13,1C7.82,8.2,5.06,14.24,5,21.71L2.56,26.15,16,31l13.44-4.88ZM16,3a2,2,0,1,1-2,2A2,2,0,0,1,16,3ZM13.07,7.7A4.28,4.28,0,0,0,16,9,4.29,4.29,0,0,0,18.93,7.7c3.52,1.85,5.88,7.11,6,13.53l-9,2.7-9-2.7C7.18,14.81,9.55,9.55,13.07,7.7ZM16,28.91,5.44,25.07l1-1.91L16,26l9.51-2.85,1,1.91Zm2.29-8.17,1-2.14,1.87-1.45L20.1,15l0-2.36-2.31-.49L16,10.68l-1.83,1.5-2.31.49,0,2.36-1,2.12,1.87,1.45,1,2.14,2.3-.56Zm-4-3.43-1-.74.54-1.08,0-1.21L15.06,14l.94-.77.93.77,1.18.25v1.21l.54,1.08-1,.74-.51,1.1L16,18.12l-1.18.29Z"/></svg>