<svg id="London_Cityset" data-name="London Cityset" xmlns="http://www.w3.org/2000/svg" width="32" height="32" viewBox="0 0 32 32"><defs><style>.cls-1{fill-rule:evenodd;}</style></defs><title>postbox</title><path id="post-box" class="cls-1" d="M15,20h2v2H15Zm-2,4h6V18H13Zm-1-8h8V14H12Zm9.22-6H10.78l-.5-2H21.72ZM16,4a10.56,10.56,0,0,1,6,1.48V6H10V5.48A10.56,10.56,0,0,1,16,4Zm-5,8H21V28H11ZM23,28V11.12l1-3.88,0-2.66-.29-.29C23.61,4.2,21.35,2,16,2S8.39,4.2,8.29,4.29L8,4.59V7l1,4.1V28H6v2H26V28Z"/></svg>