<svg id="London_Cityset" data-name="London Cityset" xmlns="http://www.w3.org/2000/svg" width="32" height="32" viewBox="0 0 32 32"><defs><style>.cls-1{fill-rule:evenodd;}</style></defs><title>st-pauls-cathedral</title><path id="st-pauls-cathedral" class="cls-1" d="M24,21V17a8,8,0,0,0-5-7.41V5H17V1H15V5H13V9.59A8,8,0,0,0,8,17v4H5v9H27V21Zm-2-4H20a18.32,18.32,0,0,0-1-5.21A6,6,0,0,1,22,17Zm-6-6c.72,0,1.79,2.61,2,6H14C14.21,13.61,15.28,11,16,11ZM15,7h2V9H15Zm-2,4.79A18.32,18.32,0,0,0,12,17H10A6,6,0,0,1,13,11.79ZM10,19H22v2H10Zm5,9H12V23h3Zm2-5h3v5H17ZM7,23h3v5H7Zm18,5H22V23h3Z"/></svg>