<?xml version="1.0" encoding="UTF-8" standalone="no"?>
<svg width="32px" height="32px" viewBox="0 0 32 32" version="1.1" xmlns="http://www.w3.org/2000/svg" xmlns:xlink="http://www.w3.org/1999/xlink" xmlns:sketch="http://www.bohemiancoding.com/sketch/ns">
    <!-- Generator: Sketch 3.5.1 (25234) - http://www.bohemiancoding.com/sketch -->
    <title>telephone-box</title>
    <desc>Created with Sketch.</desc>
    <defs></defs>
    <g id="Page-1" stroke="none" stroke-width="1" fill="none" fill-rule="evenodd" sketch:type="MSPage">
        <g id="telephone-box" sketch:type="MSArtboardGroup" fill="#000000">
            <path d="M20,24 L22,24 L22,28 L20,28 L20,24 L20,24 Z M10,24 L12,24 L12,28 L10,28 L10,24 L10,24 Z M11,8 L21,8 L21,10 L11,10 L11,8 L11,8 Z M10,5 C10,4.439 10.442,4 11.006,4 L20.994,4 C21.549,4 22,4.449 22,5 L22,6 L10,6 L10,5 L10,5 Z M20,18 L22,18 L22,22 L20,22 L20,18 L20,18 Z M12,22 L10,22 L10,18 L12,18 L12,22 L12,22 Z M18,16 L14,16 L14,12 L18,12 L18,16 L18,16 Z M22,16 L20,16 L20,12 L22,12 L22,16 L22,16 Z M12,16 L10,16 L10,12 L12,12 L12,16 L12,16 Z M18,28 L14,28 L14,24 L18,24 L18,28 L18,28 Z M14,18 L18,18 L18,22 L14,22 L14,18 L14,18 Z M24,28 L24,10 L23,10 L23,8 L24,8 L24,5 C24,3.346 22.651,2 20.994,2 L11.006,2 C9.349,2 8,3.346 8,5 L8,8 L9,8 L9,10 L8,10 L8,28 L6,28 L6,30 L8,30 L24,30 L26,30 L26,28 L24,28 L24,28 Z" sketch:type="MSShapeGroup"></path>
        </g>
    </g>
</svg>