<?xml version="1.0" encoding="UTF-8" standalone="no"?>
<svg width="32px" height="32px" viewBox="0 0 32 32" version="1.1" xmlns="http://www.w3.org/2000/svg" xmlns:xlink="http://www.w3.org/1999/xlink" xmlns:sketch="http://www.bohemiancoding.com/sketch/ns">
    <!-- Generator: Sketch 3.5.1 (25234) - http://www.bohemiancoding.com/sketch -->
    <title>tennis-ball</title>
    <desc>Created with Sketch.</desc>
    <defs></defs>
    <g id="Page-1" stroke="none" stroke-width="1" fill="none" fill-rule="evenodd" sketch:type="MSPage">
        <g id="tennis-ball" sketch:type="MSArtboardGroup" fill="#000000">
            <path d="M18.2571,26.765 C17.8951,23.648 16.5181,20.761 14.2631,18.506 C11.7931,16.035 8.5651,14.624 5.1241,14.44 C5.8131,9.62 9.6301,5.806 14.4521,5.122 C14.6361,8.57 16.0491,11.782 18.5181,14.25 C20.7721,16.504 23.6541,17.882 26.7681,18.246 C25.8801,22.508 22.5181,25.873 18.2571,26.765 M5.0221,16.432 C7.9671,16.581 10.7321,17.804 12.8491,19.92 C14.7791,21.851 15.9581,24.32 16.2701,26.986 C16.1801,26.988 16.0911,27 16.0001,27 C10.0801,27 5.2511,22.296 5.0221,16.432 M27.0001,16 C27.0001,16.086 26.9891,16.169 26.9871,16.254 C24.3291,15.937 21.8591,14.763 19.9321,12.836 C17.8191,10.723 16.6081,7.975 16.4481,5.023 C22.3051,5.26 27.0001,10.086 27.0001,16 M16.0001,3 C8.8311,3 3.0001,8.832 3.0001,16 C3.0001,23.168 8.8311,29 16.0001,29 C23.1681,29 29.0001,23.168 29.0001,16 C29.0001,8.832 23.1681,3 16.0001,3" sketch:type="MSShapeGroup"></path>
        </g>
    </g>
</svg>