<svg id="London_Cityset" data-name="London Cityset" xmlns="http://www.w3.org/2000/svg" width="32" height="32" viewBox="0 0 32 32"><defs><style>.cls-1{fill-rule:evenodd;}</style></defs><title>theatre</title><path id="theatre" class="cls-1" d="M7,25H9v2H7Zm4,0h2v2H11Zm4,0h2v2H15Zm4,0h2v2H19Zm4,0h2v2H23ZM5,29H27V23H5Zm0-7H27V3H5ZM25,5V7.18a2.94,2.94,0,0,0-3,.58,3,3,0,0,0-4,0,3,3,0,0,0-4,0,3,3,0,0,0-4,0,2.94,2.94,0,0,0-3-.58V5ZM23.46,15a9,9,0,0,0-2.37,5H10.91a9,9,0,0,0-2.37-5A7.45,7.45,0,0,0,11,10a1,1,0,1,1,2,0h2a1,1,0,1,1,2,0h2a1,1,0,1,1,2,0A7.45,7.45,0,0,0,23.46,15ZM8,9a1,1,0,0,1,1,1,5.67,5.67,0,0,1-2,3.71V10A1,1,0,0,1,8,9ZM7,16.31A6.94,6.94,0,0,1,8.88,20H7ZM23.11,20A6.88,6.88,0,0,1,25,16.31V20ZM25,13.71A5.57,5.57,0,0,1,23,10a1,1,0,0,1,2,0Z"/></svg>