<svg id="London_Cityset" data-name="London Cityset" xmlns="http://www.w3.org/2000/svg" width="32" height="32" viewBox="0 0 32 32"><defs><style>.cls-1{fill-rule:evenodd;}</style></defs><title>umbrella</title><path id="umbrella" class="cls-1" d="M9.06,12.6a3.82,3.82,0,0,0-3.4-.35A11,11,0,0,1,11,6.18,14.17,14.17,0,0,0,9.06,12.6Zm5.94,0a3.85,3.85,0,0,0-3.93,0c.35-3.69,2-6.58,3.93-7.33ZM19,12a4,4,0,0,0-2,.56V5.19c1.94.75,3.58,3.63,3.93,7.33A4,4,0,0,0,19,12Zm6,0a4,4,0,0,0-2.06.6,14.17,14.17,0,0,0-2-6.42,11,11,0,0,1,5.39,6.07A4,4,0,0,0,25,12ZM16,3A13,13,0,0,0,3,16H5a2,2,0,0,1,4,0h2a2,2,0,0,1,4,0V26a1,1,0,0,1-2,0H11a3,3,0,0,0,6,0V16a2,2,0,0,1,4,0h2a2,2,0,0,1,4,0h2A13,13,0,0,0,16,3Z"/></svg>